# xmcd
#
# Track frame offsets:
#	150
#	19472
#	34890
#	55263
#	74946
#	93177
#	109495
#	119019
#	136374
#	162328
#	176138
#
# Disc length: 2595 seconds
#
# Revision: 1
# Processed by: cddbd v1.5.2PL0 Copyright (c) Steve Scherf et al.
# Submitted via: audiograbber 1.83.01
#
DISCID=ac0a210b
DTITLE=Holly Cole - Holly Cole
DYEAR=2007
DGENRE=Jazz
TTITLE0=The House Is Haunted By The Echo Of Your Last Goodbye
TTITLE1=Charade
TTITLE2=I Will Wait For You
TTITLE3=Waters Of March
TTITLE4=Alley Cat Song
TTITLE5=Larger Than Life
TTITLE6=Be Careful, It's My Heart
TTITLE7=It's Alright With Me
TTITLE8=You're My Thrill
TTITLE9=Life Is Just A Bowl Of Cherries
TTITLE10=Reaching For The Moon
EXTD=YEAR: 2007
EXTT0=
EXTT1=
EXTT2=
EXTT3=
EXTT4=
EXTT5=
EXTT6=
EXTT7=
EXTT8=
EXTT9=
EXTT10=
PLAYORDER=
